<svg width="271" height="61" viewBox="0 0 271 61" fill="none" xmlns="http://www.w3.org/2000/svg">
<path d="M85.196 39.432C83.372 39.432 81.74 39.12 80.3 38.496C78.884 37.872 77.756 36.96 76.916 35.76C76.076 34.56 75.644 33.108 75.62 31.404H80.948C80.972 32.124 81.152 32.772 81.488 33.348C81.848 33.924 82.34 34.38 82.964 34.716C83.588 35.052 84.32 35.22 85.16 35.22C85.904 35.22 86.54 35.1 87.068 34.86C87.62 34.62 88.04 34.284 88.328 33.852C88.64 33.42 88.796 32.892 88.796 32.268C88.796 31.596 88.616 31.02 88.256 30.54C87.92 30.06 87.452 29.652 86.852 29.316C86.252 28.98 85.556 28.68 84.764 28.416C83.996 28.128 83.168 27.84 82.28 27.552C80.288 26.904 78.764 26.04 77.708 24.96C76.676 23.88 76.16 22.44 76.16 20.64C76.16 19.104 76.52 17.796 77.24 16.716C77.984 15.636 79.004 14.808 80.3 14.232C81.62 13.656 83.108 13.368 84.764 13.368C86.468 13.368 87.968 13.668 89.264 14.268C90.56 14.844 91.58 15.684 92.324 16.788C93.092 17.892 93.5 19.2 93.548 20.712H88.148C88.124 20.16 87.968 19.656 87.68 19.2C87.392 18.72 86.996 18.336 86.492 18.048C85.988 17.76 85.388 17.616 84.692 17.616C84.092 17.592 83.54 17.688 83.036 17.904C82.556 18.096 82.172 18.396 81.884 18.804C81.596 19.188 81.452 19.68 81.452 20.28C81.452 20.88 81.596 21.384 81.884 21.792C82.172 22.176 82.568 22.512 83.072 22.8C83.6 23.088 84.212 23.364 84.908 23.628C85.604 23.868 86.36 24.12 87.176 24.384C88.448 24.816 89.612 25.332 90.668 25.932C91.724 26.508 92.564 27.264 93.188 28.2C93.836 29.136 94.16 30.372 94.16 31.908C94.16 33.252 93.812 34.5 93.116 35.652C92.42 36.78 91.412 37.692 90.092 38.388C88.772 39.084 87.14 39.432 85.196 39.432ZM104.328 39.432C102.84 39.432 101.592 39.192 100.584 38.712C99.6 38.208 98.868 37.548 98.388 36.732C97.932 35.892 97.704 34.968 97.704 33.96C97.704 32.88 97.98 31.92 98.532 31.08C99.084 30.24 99.936 29.58 101.088 29.1C102.24 28.62 103.68 28.38 105.408 28.38H109.872C109.872 27.516 109.752 26.808 109.512 26.256C109.296 25.68 108.936 25.248 108.432 24.96C107.952 24.672 107.304 24.528 106.488 24.528C105.6 24.528 104.844 24.72 104.22 25.104C103.62 25.488 103.248 26.064 103.104 26.832H98.208C98.352 25.536 98.784 24.42 99.504 23.484C100.224 22.524 101.184 21.78 102.384 21.252C103.608 20.7 104.988 20.424 106.524 20.424C108.228 20.424 109.704 20.712 110.952 21.288C112.224 21.864 113.196 22.692 113.868 23.772C114.564 24.852 114.912 26.184 114.912 27.768V39H110.664L110.088 36.264C109.848 36.744 109.536 37.176 109.152 37.56C108.792 37.944 108.372 38.28 107.892 38.568C107.412 38.832 106.872 39.036 106.272 39.18C105.696 39.348 105.048 39.432 104.328 39.432ZM105.552 35.544C106.152 35.544 106.692 35.448 107.172 35.256C107.652 35.04 108.06 34.74 108.396 34.356C108.732 33.972 109.008 33.54 109.224 33.06C109.44 32.556 109.584 32.016 109.656 31.44V31.404H106.02C105.324 31.404 104.748 31.5 104.292 31.692C103.86 31.86 103.536 32.112 103.32 32.448C103.104 32.76 102.996 33.12 102.996 33.528C102.996 33.96 103.104 34.332 103.32 34.644C103.536 34.956 103.836 35.184 104.22 35.328C104.604 35.472 105.048 35.544 105.552 35.544ZM119.55 39V20.856H124.59V39H119.55ZM122.07 18.516C121.158 18.516 120.414 18.252 119.838 17.724C119.262 17.172 118.974 16.5 118.974 15.708C118.974 14.892 119.262 14.22 119.838 13.692C120.414 13.164 121.158 12.9 122.07 12.9C122.982 12.9 123.726 13.164 124.302 13.692C124.878 14.22 125.166 14.892 125.166 15.708C125.166 16.5 124.878 17.172 124.302 17.724C123.726 18.252 122.982 18.516 122.07 18.516ZM140.263 39.432C139.327 39.432 138.499 39.312 137.779 39.072C137.059 38.856 136.423 38.544 135.871 38.136C135.319 37.728 134.851 37.26 134.467 36.732L133.891 39H129.427V13.08H134.467V23.34C135.019 22.5 135.763 21.804 136.699 21.252C137.659 20.7 138.835 20.424 140.227 20.424C141.883 20.424 143.359 20.844 144.655 21.684C145.975 22.5 147.007 23.628 147.751 25.068C148.519 26.484 148.903 28.116 148.903 29.964C148.903 31.764 148.519 33.384 147.751 34.824C147.007 36.264 145.987 37.392 144.691 38.208C143.395 39.024 141.919 39.432 140.263 39.432ZM139.039 35.04C139.951 35.04 140.767 34.824 141.487 34.392C142.207 33.96 142.771 33.36 143.179 32.592C143.587 31.824 143.791 30.948 143.791 29.964C143.791 28.956 143.587 28.068 143.179 27.3C142.771 26.532 142.207 25.932 141.487 25.5C140.767 25.044 139.951 24.816 139.039 24.816C138.103 24.816 137.275 25.044 136.555 25.5C135.859 25.932 135.307 26.532 134.899 27.3C134.491 28.044 134.287 28.92 134.287 29.928C134.287 30.936 134.491 31.824 134.899 32.592C135.307 33.36 135.859 33.96 136.555 34.392C137.275 34.824 138.103 35.04 139.039 35.04ZM161.87 39.432C160.046 39.432 158.426 39.048 157.01 38.28C155.618 37.488 154.526 36.396 153.734 35.004C152.942 33.588 152.546 31.956 152.546 30.108C152.546 28.236 152.93 26.58 153.698 25.14C154.49 23.676 155.582 22.524 156.974 21.684C158.39 20.844 160.034 20.424 161.906 20.424C163.706 20.424 165.278 20.82 166.622 21.612C167.99 22.404 169.046 23.472 169.79 24.816C170.558 26.16 170.942 27.708 170.942 29.46C170.942 29.7 170.93 29.964 170.906 30.252C170.906 30.54 170.882 30.852 170.834 31.188H156.146V28.128H165.83C165.758 27.024 165.35 26.148 164.606 25.5C163.886 24.828 162.986 24.492 161.906 24.492C161.09 24.492 160.346 24.684 159.674 25.068C159.002 25.452 158.474 26.016 158.09 26.76C157.706 27.504 157.514 28.452 157.514 29.604V30.648C157.514 31.584 157.694 32.412 158.054 33.132C158.414 33.828 158.918 34.368 159.566 34.752C160.214 35.136 160.97 35.328 161.834 35.328C162.698 35.328 163.406 35.148 163.958 34.788C164.534 34.428 164.966 33.96 165.254 33.384H170.402C170.066 34.512 169.49 35.532 168.674 36.444C167.882 37.356 166.91 38.088 165.758 38.64C164.606 39.168 163.31 39.432 161.87 39.432ZM174.919 39V20.856H179.383L179.851 24.204C180.307 23.412 180.859 22.74 181.507 22.188C182.155 21.636 182.911 21.204 183.775 20.892C184.639 20.58 185.575 20.424 186.583 20.424V25.752H184.891C184.171 25.752 183.499 25.836 182.875 26.004C182.275 26.172 181.747 26.448 181.291 26.832C180.859 27.192 180.523 27.696 180.283 28.344C180.067 28.968 179.959 29.76 179.959 30.72V39H174.919ZM189.862 39V13.8H194.902L206.314 30.9V13.8H211.354V39H206.314L194.902 21.936V39H189.862ZM224.94 39.432C223.116 39.432 221.496 39.048 220.08 38.28C218.688 37.488 217.596 36.396 216.804 35.004C216.012 33.588 215.616 31.956 215.616 30.108C215.616 28.236 216 26.58 216.768 25.14C217.56 23.676 218.652 22.524 220.044 21.684C221.46 20.844 223.104 20.424 224.976 20.424C226.776 20.424 228.348 20.82 229.692 21.612C231.06 22.404 232.116 23.472 232.86 24.816C233.628 26.16 234.012 27.708 234.012 29.46C234.012 29.7 234 29.964 233.976 30.252C233.976 30.54 233.952 30.852 233.904 31.188H219.216V28.128H228.9C228.828 27.024 228.42 26.148 227.676 25.5C226.956 24.828 226.056 24.492 224.976 24.492C224.16 24.492 223.416 24.684 222.744 25.068C222.072 25.452 221.544 26.016 221.16 26.76C220.776 27.504 220.584 28.452 220.584 29.604V30.648C220.584 31.584 220.764 32.412 221.124 33.132C221.484 33.828 221.988 34.368 222.636 34.752C223.284 35.136 224.04 35.328 224.904 35.328C225.768 35.328 226.476 35.148 227.028 34.788C227.604 34.428 228.036 33.96 228.324 33.384H233.472C233.136 34.512 232.56 35.532 231.744 36.444C230.952 37.356 229.98 38.088 228.828 38.64C227.676 39.168 226.38 39.432 224.94 39.432ZM234.961 39L241.513 29.928L234.961 20.856H240.397L244.717 26.94L249.001 20.856H254.401L247.849 29.928L254.401 39H249.001L244.717 32.88L240.397 39H234.961ZM265.746 39C264.45 39 263.31 38.796 262.326 38.388C261.366 37.98 260.622 37.308 260.094 36.372C259.566 35.436 259.302 34.164 259.302 32.556V25.068H256.17V20.856H259.302L259.842 15.852H264.342V20.856H269.058V25.068H264.342V32.592C264.342 33.384 264.51 33.936 264.846 34.248C265.206 34.56 265.806 34.716 266.646 34.716H269.022V39H265.746Z" fill="white"/>
<path d="M24.616 14.7886C25.5849 14.1179 26.8567 14.0764 27.8672 14.6827L52.2133 29.2904C54.1427 30.448 54.1583 33.2387 52.2421 34.4179L31.705 47.0561C30.7973 47.6147 29.6613 47.6498 28.7209 47.1482L4.33939 34.1448C2.35812 33.0881 2.19734 30.3092 4.04353 29.0311L24.616 14.7886Z" fill="#28C7FA" fill-opacity="0.35"/>
<g filter="url(#filter0_d_8_17)">
<path d="M24.6793 10.4366C25.6482 9.7659 26.92 9.72447 27.9304 10.3307L50.0421 23.5977C51.9714 24.7553 51.9871 27.546 50.0709 28.7252L31.4703 40.1717C30.5626 40.7303 29.4267 40.7653 28.4862 40.2638L6.33928 28.4521C4.35801 27.3954 4.19723 24.6166 6.04341 23.3384L24.6793 10.4366Z" fill="#28C7FA" fill-opacity="0.5" shape-rendering="crispEdges"/>
</g>
<g filter="url(#filter1_d_8_17)">
<path d="M25.1666 8.954C26.1317 8.32883 27.3693 8.31036 28.3526 8.90643L45.1161 19.0677C47.0463 20.2377 47.0417 23.04 45.1077 24.2037L31.436 32.4298C30.5211 32.9804 29.3824 33.003 28.4462 32.4893L11.4043 23.1382C9.41394 22.0461 9.311 19.2245 11.2165 17.9902L25.1666 8.954Z" fill="#28C7FA"/>
</g>
<defs>
<filter id="filter0_d_8_17" x="0.750977" y="9.9032" width="54.7476" height="38.7135" filterUnits="userSpaceOnUse" color-interpolation-filters="sRGB">
<feFlood flood-opacity="0" result="BackgroundImageFix"/>
<feColorMatrix in="SourceAlpha" type="matrix" values="0 0 0 0 0 0 0 0 0 0 0 0 0 0 0 0 0 0 127 0" result="hardAlpha"/>
<feOffset dy="4"/>
<feGaussianBlur stdDeviation="2"/>
<feComposite in2="hardAlpha" operator="out"/>
<feColorMatrix type="matrix" values="0 0 0 0 0 0 0 0 0 0 0 0 0 0 0 0 0 0 0.25 0"/>
<feBlend mode="normal" in2="BackgroundImageFix" result="effect1_dropShadow_8_17"/>
<feBlend mode="normal" in="SourceGraphic" in2="effect1_dropShadow_8_17" result="shape"/>
</filter>
<filter id="filter1_d_8_17" x="5.84741" y="8.47192" width="44.7136" height="32.3873" filterUnits="userSpaceOnUse" color-interpolation-filters="sRGB">
<feFlood flood-opacity="0" result="BackgroundImageFix"/>
<feColorMatrix in="SourceAlpha" type="matrix" values="0 0 0 0 0 0 0 0 0 0 0 0 0 0 0 0 0 0 127 0" result="hardAlpha"/>
<feOffset dy="4"/>
<feGaussianBlur stdDeviation="2"/>
<feComposite in2="hardAlpha" operator="out"/>
<feColorMatrix type="matrix" values="0 0 0 0 0 0 0 0 0 0 0 0 0 0 0 0 0 0 0.25 0"/>
<feBlend mode="normal" in2="BackgroundImageFix" result="effect1_dropShadow_8_17"/>
<feBlend mode="normal" in="SourceGraphic" in2="effect1_dropShadow_8_17" result="shape"/>
</filter>
</defs>
</svg>
